<?xml version="1.0" encoding="utf-8"?>
<!-- Svg Vector Icons : http://www.onlinewebfonts.com/icon -->
<!DOCTYPE svg PUBLIC "-//W3C//DTD SVG 1.1//EN" "http://www.w3.org/Graphics/SVG/1.1/DTD/svg11.dtd">
<svg version="1.1" xmlns="http://www.w3.org/2000/svg" xmlns:xlink="http://www.w3.org/1999/xlink" x="0px" y="0px" viewBox="0 0 1000 1000" enable-background="new 0 0 1000 1000" xml:space="preserve">
<metadata> Svg Vector Icons : http://www.onlinewebfonts.com/icon </metadata>
<g><g><g><path d="M984.4,367.8c-4.8-5.8-11.9-9.3-19.4-9.3h-95.4c-23.5-62.1-54.2-122.9-89-145.9c-120.6-79.3-440.4-79.3-560.9,0c-34.9,23-65.4,83.9-89.1,145.9H35.1c-7.6,0-14.7,3.4-19.4,9.3c-4.8,5.8-6.7,13.5-5.1,20.9l14.1,68.5c2.4,11.7,12.7,20,24.6,20h28.3C50.2,508.7,37,548.3,36.8,587.9c-0.2,49,18.4,93.2,52.4,124.6c0.4,0.3,0.7,0.5,1.1,0.9v95.8c0,20.8,16.9,37.6,37.6,37.6h88c20.8,0,37.6-16.9,37.6-37.6v-38.5h492.9v38.5c0,20.8,16.9,37.6,37.6,37.6h88c20.7,0,37.6-16.9,37.6-37.6v-93.9c36.1-33,53.3-78.5,53.5-123.9c0.1-41-13.7-82.1-42.6-114.2h30.1c11.9,0,22.2-8.3,24.6-20l14.1-68.4C991,381.3,989.2,373.7,984.4,367.8z M260.9,275.6c96.1-63.3,382.1-63.3,478.2,0c18.6,12.2,42.7,61.8,64.7,122.4H196.2C218.2,337.3,242.2,287.9,260.9,275.6z M148.3,597.4c0-40.9,33.2-74,74-74c40.9,0,74.1,33.1,74.1,74c0,40.9-33.1,74.1-74.1,74.1C181.5,671.4,148.3,638.3,148.3,597.4z M778.6,671.4c-40.9,0-74-33.2-74-74.1c0-40.9,33.2-74,74-74c40.9,0,74.1,33.1,74.1,74C852.7,638.3,819.5,671.4,778.6,671.4z"/></g></g><g></g><g></g><g></g><g></g><g></g><g></g><g></g><g></g><g></g><g></g><g></g><g></g><g></g><g></g><g></g></g>
</svg>